<svg xmlns="http://www.w3.org/2000/svg" viewBox="0 0 512 512">
  <defs>
    <linearGradient id="gold" x1="0" y1="0" x2="1" y2="1">
      <stop offset="0%" stop-color="#FFD700"/>
      <stop offset="50%" stop-color="#FFC107"/>
      <stop offset="100%" stop-color="#B8860B"/>
    </linearGradient>
  </defs>

  <!-- Background -->
  <rect width="512" height="512" rx="0" fill="#000000"/>

  <!-- Logo centered and scaled (120x80 -> ~400x267, centered in 512x512) -->
  <g transform="translate(56, 122) scale(3.33)">
    <!-- C letterform (behind R) -->
    <path fill="url(#gold)" d="M98 14 C92 4 82 0 70 0 C50 0 36 18 36 40 C36 62 50 80 70 80 C82 80 92 76 98 66 L88 58 C84 65 77 69 70 69 C56 69 47 56 47 40 C47 24 56 11 70 11 C77 11 84 15 88 22Z"/>

    <!-- R: left vertical bar -->
    <path fill="url(#gold)" d="M3 2 L18 2 L18 78 L3 78Z"/>

    <!-- R: angular top with bowl -->
    <path fill="url(#gold)" d="M18 2 L56 0 L62 4 C66 8 68 14 66 20 C64 28 58 34 48 34 L18 34Z"/>

    <!-- R: leg -->
    <path fill="url(#gold)" d="M32 36 L46 36 L64 78 L48 78Z"/>

    <!-- Oar shaft -->
    <path fill="url(#gold)" d="M24 10 L26 8 L80 48 L78 51Z"/>

    <!-- Oar blade -->
    <path fill="url(#gold)" d="M78 48 L88 55 L84 60 L74 53Z"/>

    <!-- Rower detail lines -->
    <g fill="none" stroke="rgba(0,0,0,0.6)" stroke-width="1.5" stroke-linecap="round" stroke-linejoin="round">
      <circle cx="40" cy="12" r="4.5"/>
      <path d="M39 17 C41 22 45 28 49 33"/>
      <path d="M36 15 L28 9"/>
      <path d="M42 16 L49 23"/>
      <path d="M35 14 L43 14"/>
    </g>
  </g>
</svg>
