<?xml version="1.0" encoding="UTF-8"?>
<svg xmlns="http://www.w3.org/2000/svg" viewBox="181 252 562 438" width="562" height="438">
  <path d="M191.0,679.4C191.0,678.6 192.1,671.0 193.5,662.7C194.8,654.3 198.0,634.7 200.5,619.0C203.0,603.3 206.6,581.0 208.5,569.5C210.4,558.0 213.5,538.8 215.4,527.0C217.3,515.2 222.3,484.4 226.5,458.5C230.7,432.6 235.9,400.5 238.1,387.0C240.2,373.5 243.4,353.9 245.2,343.3L248.3,324.1L242.9,318.2C239.9,315.0 227.2,301.4 214.5,288.1C201.8,274.8 191.5,263.7 191.5,263.4C191.5,263.2 242.1,263.0 304.0,263.0C412.6,263.0 416.8,263.1 428.5,265.1C456.8,269.9 480.4,281.6 498.9,300.1C519.6,320.9 530.2,345.4 532.5,378.0C533.1,386.4 531.8,406.9 530.5,408.9C530.3,409.3 526.3,408.4 521.8,406.9C517.2,405.3 508.0,403.2 501.4,402.1C493.2,400.8 486.8,399.1 481.4,396.8L473.5,393.4L473.3,386.7C473.2,382.9 472.4,376.9 471.6,373.2C470.2,367.1 470.2,365.9 471.6,361.5C473.8,354.1 474.5,341.3 473.0,334.9C469.7,320.9 461.3,310.4 448.1,304.1C440.8,300.6 440.1,300.5 429.5,300.5C419.2,300.5 418.1,300.7 411.7,303.7C404.7,307.0 395.4,315.0 391.9,320.7L389.8,324.0L350.1,324.0L310.4,324.0L309.2,331.2C308.6,335.2 304.6,359.4 300.5,385.0C296.4,410.6 289.2,454.9 284.5,483.5C279.8,512.1 274.2,546.8 271.9,560.5C269.7,574.2 267.7,586.2 267.4,587.0C267.2,587.9 256.0,598.2 242.6,610.0C229.1,621.8 218.3,631.6 218.5,631.9C218.7,632.1 241.5,621.1 269.1,607.5L319.3,582.8L327.8,583.9L336.3,585.0L344.4,581.3C348.9,579.3 366.4,571.0 383.5,562.7C411.4,549.2 428.5,541.1 497.0,508.5C508.3,503.2 530.0,492.7 545.4,485.4L573.2,471.9L577.1,473.7C580.5,475.3 581.0,475.9 580.8,478.5C580.5,482.0 585.9,479.1 525.0,508.6C502.7,519.4 477.8,531.5 469.5,535.5C461.2,539.5 430.0,554.7 400.0,569.3C343.2,596.9 341.7,597.8 335.2,607.3C331.7,612.5 332.9,611.9 260.5,647.0C251.7,651.3 235.1,659.4 223.5,665.1C190.6,681.4 191.0,681.2 191.0,679.4Z M440.9,666.9C435.7,660.3 427.7,650.1 423.0,644.2C393.5,607.0 385.5,596.7 385.3,595.7C385.1,594.7 433.6,570.1 437.5,569.2C438.3,569.0 457.1,591.7 482.4,623.5C506.4,653.5 526.0,678.2 526.0,678.5C526.0,678.8 509.0,679.0 488.1,679.0L450.3,679.0L440.9,666.9Z M534.0,661.8C526.6,652.4 514.2,636.8 506.5,627.1C498.7,617.4 492.1,609.0 491.7,608.4C491.4,607.8 495.0,608.8 499.8,610.6C514.3,616.0 523.9,617.5 545.5,617.5C557.1,617.5 565.2,617.1 566.3,616.4C568.0,615.4 567.6,614.8 562.3,610.0C552.4,600.9 542.7,593.6 529.9,585.5C512.1,574.4 510.5,573.3 505.0,567.8C499.4,562.3 493.9,555.1 489.6,547.7L486.9,542.9L490.5,541.4C492.5,540.6 500.3,537.0 507.8,533.4C517.6,528.7 521.9,527.1 523.0,527.7C524.7,528.8 567.5,579.7 581.8,597.7C587.1,604.4 591.9,609.9 592.4,610.0C594.5,610.1 612.3,600.9 619.6,596.0C629.0,589.6 643.4,576.0 650.0,567.1C656.7,558.2 662.7,547.3 667.1,536.6L670.7,527.5L702.4,527.2L734.1,527.0L733.4,530.7C732.2,537.6 724.3,560.5 720.2,569.1C691.3,629.4 637.2,668.8 571.4,677.4C564.9,678.3 556.9,679.0 553.5,679.0L547.5,678.9L534.0,661.8Z M333.8,562.7C317.0,556.9 307.5,545.0 304.8,526.1C302.4,509.9 307.1,478.0 315.6,452.0C329.1,410.7 351.2,384.1 383.1,370.4C398.9,363.6 400.8,361.0 402.0,344.8C402.8,334.2 402.9,333.5 406.6,328.2C409.3,324.4 412.2,321.7 416.0,319.6C420.9,316.8 422.4,316.5 429.5,316.5C436.2,316.5 438.3,317.0 442.6,319.2C450.9,323.5 456.1,331.1 457.5,341.0C458.7,349.0 454.8,365.1 448.8,377.7L445.8,383.8L440.5,381.4C429.8,376.5 414.2,374.7 401.4,377.1C394.4,378.4 392.0,380.0 397.1,380.0C408.3,380.0 423.2,385.7 435.7,394.9C441.1,398.7 445.1,400.7 451.2,402.5C455.8,403.8 462.9,406.3 467.0,408.0C480.2,413.6 488.1,416.0 499.9,418.0C512.0,420.0 523.9,423.9 553.1,435.3C562.2,438.9 578.0,444.1 588.1,446.9C598.2,449.7 607.5,452.4 608.6,452.9C610.3,453.6 611.0,455.3 611.9,460.3C612.5,463.8 613.0,468.3 613.0,470.3C613.0,473.7 612.7,474.1 604.8,478.5C600.3,481.0 596.1,482.8 595.3,482.6C594.5,482.3 594.0,480.5 594.0,478.3C594.0,476.2 593.5,472.9 593.0,470.8C592.0,467.5 591.4,467.0 586.3,465.4C583.2,464.4 578.7,462.1 576.2,460.3C572.2,457.2 570.7,456.7 558.7,455.0C551.4,454.0 541.0,452.6 535.5,452.0C511.0,449.3 498.9,446.3 484.0,439.5C476.1,435.9 471.9,434.7 458.8,432.5C434.3,428.4 419.9,424.2 401.7,415.7C395.6,412.9 392.5,411.9 391.6,412.6C389.0,414.4 353.5,446.3 353.2,447.0C353.1,447.4 362.3,444.0 373.7,439.4C385.1,434.8 395.1,431.0 395.8,431.0C397.7,431.0 414.0,438.1 414.0,438.9C413.9,440.4 401.0,455.4 395.7,460.1C392.6,462.9 388.0,467.8 385.5,471.0C380.9,476.9 374.0,490.2 374.0,493.0C374.0,493.8 370.1,496.9 365.2,499.9C354.6,506.5 343.7,514.1 344.2,514.6C344.4,514.7 348.8,513.6 354.0,511.9C384.8,502.3 418.5,496.7 447.0,496.6C463.6,496.5 482.0,497.7 482.0,498.9C482.0,499.3 479.6,500.8 476.8,502.1C470.6,505.1 433.8,522.5 381.5,547.4C361.1,557.1 343.6,565.0 342.5,565.0C341.4,565.0 337.5,563.9 333.8,562.7Z M397.2,482.6C397.8,481.5 402.6,476.1 407.9,470.7C416.4,461.9 418.5,460.3 426.5,456.5C431.4,454.2 436.9,451.1 438.6,449.7C442.4,446.5 443.2,446.5 458.0,449.0C466.5,450.4 472.3,452.1 480.1,455.5C486.0,458.0 494.7,461.0 499.4,462.3C504.1,463.5 508.0,464.8 508.0,465.1C508.0,465.8 496.0,479.9 493.4,482.2C491.6,483.8 490.8,483.8 480.0,481.9C469.9,480.1 465.7,479.9 445.0,480.4C430.8,480.7 416.5,481.7 408.8,482.8C396.2,484.6 396.2,484.5 397.2,482.6Z M668.4,408.8C665.5,399.7 656.4,382.6 650.1,374.3C638.0,358.2 617.6,342.0 600.0,334.4C595.4,332.4 586.5,329.4 580.1,327.8C570.3,325.2 566.0,324.7 552.2,324.3L536.0,323.7L530.5,314.5C521.2,298.6 506.8,282.8 493.6,274.1L489.7,271.6L492.8,270.3C498.0,268.2 520.6,264.0 532.4,262.9C551.5,261.2 575.4,263.3 596.6,268.5C651.5,282.1 699.5,323.6 722.2,377.0C725.8,385.5 732.2,404.6 733.5,410.8L734.2,414.0L702.2,414.0L670.2,414.0L668.4,408.8Z" fill="white" fill-rule="evenodd"/>
</svg>